<svg xmlns="http://www.w3.org/2000/svg" width="1200" height="800" viewBox="0 0 1200 800" role="img" aria-label="Industrial compressor diagnostics">
  <defs><linearGradient id="g" x1="0" y1="0" x2="1" y2="1"><stop stop-color="#27272A"/><stop offset=".55" stop-color="#121212"/><stop offset="1" stop-color="#0A0A0A"/></linearGradient><radialGradient id="r" cx=".72" cy=".35" r=".42"><stop stop-color="#E30613" stop-opacity=".35"/><stop offset="1" stop-color="#E30613" stop-opacity="0"/></radialGradient></defs>
  <rect width="1200" height="800" fill="url(#g)"/><rect width="1200" height="800" fill="url(#r)"/>
  <g stroke="#FFFFFF" stroke-opacity=".08"><path d="M0 120h1200M0 240h1200M0 360h1200M0 480h1200M0 600h1200M0 720h1200M120 0v800M240 0v800M360 0v800M480 0v800M600 0v800M720 0v800M840 0v800M960 0v800M1080 0v800"/></g>
  <g transform="translate(160 240)" fill="none" stroke-linecap="round" stroke-linejoin="round"><rect x="0" y="130" width="560" height="190" rx="18" fill="#18181B" stroke="#27272A" stroke-width="8"/><circle cx="128" cy="224" r="58" fill="#121212" stroke="#A1A1AA" stroke-width="8"/><circle cx="128" cy="224" r="8" fill="#E30613"/><path d="M128 224 170 194" stroke="#E30613" stroke-width="10"/><path d="M245 185h220M245 235h180M245 285h245" stroke="#A1A1AA" stroke-opacity=".7" stroke-width="14"/><path d="M560 190h210c58 0 88 28 88 78v52" stroke="#E30613" stroke-width="12"/></g>
</svg>
